<svg width="406" height="138" viewBox="0 0 406 138" fill="none" xmlns="http://www.w3.org/2000/svg">
<path d="M0 6C0 2.68629 2.68629 0 6 0H400C403.314 0 406 2.68629 406 6V132C406 135.314 403.314 138 400 138H6C2.68629 138 0 135.314 0 132V6Z" fill="#ACB14F" fill-opacity="0.2"></path>
<path d="M46 58.5C46.3978 58.5 46.7794 58.658 47.0607 58.9393C47.342 59.2206 47.5 59.6022 47.5 60V75.189C48.914 75.5541 50.1463 76.4223 50.9659 77.631C51.7855 78.8397 52.1362 80.3058 51.9522 81.7545C51.7682 83.2032 51.0621 84.5351 49.9664 85.5005C48.8706 86.4659 47.4604 86.9985 46 86.9985C44.5396 86.9985 43.1294 86.4659 42.0337 85.5005C40.9379 84.5351 40.2318 83.2032 40.0478 81.7545C39.8638 80.3058 40.2145 78.8397 41.0341 77.631C41.8537 76.4223 43.086 75.5541 44.5 75.189V60C44.5 59.6022 44.658 59.2206 44.9393 58.9393C45.2207 58.658 45.6022 58.5 46 58.5ZM46 45C43.6131 45 41.3239 45.9482 39.636 47.636C37.9482 49.3239 37 51.6131 37 54V73.062C35.4725 74.794 34.4772 76.93 34.1336 79.2137C33.79 81.4973 34.1126 83.8317 35.0628 85.9365C36.0129 88.0413 37.5503 89.8273 39.4903 91.0801C41.4303 92.3329 43.6906 92.9992 46 92.9992C48.3094 92.9992 50.5697 92.3329 52.5097 91.0801C54.4498 89.8273 55.9871 88.0413 56.9373 85.9365C57.8874 83.8317 58.21 81.4973 57.8664 79.2137C57.5228 76.93 56.5275 74.794 55 73.062V54C55 51.6131 54.0518 49.3239 52.364 47.636C50.6761 45.9482 48.387 45 46 45ZM46 48C47.5913 48 49.1174 48.6321 50.2426 49.7574C51.3679 50.8826 52 52.4087 52 54V74.265L52.429 74.7C53.6692 75.9659 54.508 77.5698 54.8403 79.3105C55.1727 81.0512 54.9837 82.8513 54.2971 84.4851C53.6105 86.1188 52.4569 87.5135 50.9809 88.4943C49.5049 89.4751 47.7722 89.9982 46 89.9982C44.2278 89.9982 42.4951 89.4751 41.0191 88.4943C39.5431 87.5135 38.3895 86.1188 37.7029 84.4851C37.0163 82.8513 36.8273 81.0512 37.1597 79.3105C37.492 77.5698 38.3308 75.9659 39.571 74.7L40 74.265V54C40 52.4087 40.6321 50.8826 41.7574 49.7574C42.8826 48.6321 44.4087 48 46 48Z" fill="white"></path>
<g clip-path="url(#clip0_1059_4685)">
<path d="M86.57 65.216C85.478 65.216 84.5 65 83.636 64.568C82.784 64.124 82.112 63.434 81.62 62.498C81.14 61.55 80.9 60.314 80.9 58.79V58.43C80.9 57.326 81.044 56.384 81.332 55.604C81.62 54.812 82.022 54.164 82.538 53.66C83.066 53.156 83.672 52.784 84.356 52.544C85.04 52.304 85.778 52.184 86.57 52.184C87.278 52.184 87.938 52.274 88.55 52.454C89.174 52.622 89.726 52.88 90.206 53.228C90.686 53.576 91.07 54.026 91.358 54.578C91.658 55.13 91.832 55.778 91.88 56.522H89.072C88.94 55.814 88.652 55.292 88.208 54.956C87.764 54.62 87.218 54.452 86.57 54.452C86.066 54.452 85.598 54.578 85.166 54.83C84.734 55.07 84.38 55.478 84.104 56.054C83.84 56.63 83.708 57.422 83.708 58.43V58.79C83.708 59.582 83.792 60.248 83.96 60.788C84.128 61.316 84.35 61.742 84.626 62.066C84.902 62.378 85.208 62.606 85.544 62.75C85.88 62.882 86.222 62.948 86.57 62.948C87.254 62.948 87.818 62.774 88.262 62.426C88.706 62.066 88.976 61.55 89.072 60.878H91.88C91.82 61.658 91.646 62.33 91.358 62.894C91.07 63.446 90.692 63.896 90.224 64.244C89.756 64.58 89.21 64.826 88.586 64.982C87.962 65.138 87.29 65.216 86.57 65.216ZM95.2859 68.816C95.1059 68.816 94.9259 68.798 94.7459 68.762V66.746C94.9259 66.782 95.1059 66.8 95.2859 66.8C95.5259 66.8 95.7239 66.74 95.8799 66.62C96.0479 66.5 96.1979 66.308 96.3299 66.044C96.4739 65.78 96.6299 65.432 96.7979 65L92.7659 55.46H95.4299L98.0219 62.048L100.398 55.46H102.846L99.1739 65C98.8259 65.9 98.4899 66.626 98.1659 67.178C97.8419 67.742 97.4579 68.156 97.0139 68.42C96.5819 68.684 96.0059 68.816 95.2859 68.816ZM104.125 65V55.46H108.877C109.705 55.46 110.377 55.568 110.893 55.784C111.409 56 111.781 56.3 112.009 56.684C112.249 57.068 112.369 57.518 112.369 58.034C112.369 58.466 112.237 58.88 111.973 59.276C111.709 59.66 111.337 59.918 110.857 60.05C111.445 60.194 111.901 60.47 112.225 60.878C112.561 61.274 112.729 61.742 112.729 62.282C112.729 63.11 112.441 63.77 111.865 64.262C111.289 64.754 110.413 65 109.237 65H104.125ZM106.483 63.092H108.787C109.327 63.092 109.723 63.014 109.975 62.858C110.239 62.69 110.371 62.426 110.371 62.066C110.371 61.706 110.245 61.448 109.993 61.292C109.753 61.124 109.351 61.04 108.787 61.04H106.483V63.092ZM106.483 59.276H108.553C109.105 59.276 109.483 59.198 109.687 59.042C109.903 58.886 110.011 58.646 110.011 58.322C110.011 58.01 109.903 57.776 109.687 57.62C109.471 57.452 109.093 57.368 108.553 57.368H106.483V59.276ZM118.781 65.216C117.917 65.216 117.119 65.042 116.387 64.694C115.667 64.334 115.091 63.788 114.659 63.056C114.227 62.324 114.011 61.412 114.011 60.32V59.96C114.011 58.928 114.227 58.064 114.659 57.368C115.091 56.66 115.667 56.132 116.387 55.784C117.119 55.424 117.917 55.244 118.781 55.244C119.657 55.244 120.455 55.424 121.175 55.784C121.895 56.132 122.471 56.66 122.903 57.368C123.335 58.064 123.551 58.928 123.551 59.96V60.32C123.551 61.388 123.335 62.288 122.903 63.02C122.471 63.752 121.895 64.304 121.175 64.676C120.455 65.036 119.657 65.216 118.781 65.216ZM118.781 63.2C119.237 63.2 119.639 63.098 119.987 62.894C120.347 62.678 120.629 62.354 120.833 61.922C121.037 61.49 121.139 60.956 121.139 60.32V59.96C121.139 59.372 121.037 58.88 120.833 58.484C120.629 58.088 120.347 57.788 119.987 57.584C119.639 57.368 119.237 57.26 118.781 57.26C118.325 57.26 117.917 57.368 117.557 57.584C117.209 57.788 116.933 58.088 116.729 58.484C116.525 58.88 116.423 59.372 116.423 59.96V60.32C116.423 60.968 116.525 61.508 116.729 61.94C116.933 62.36 117.209 62.678 117.557 62.894C117.917 63.098 118.325 63.2 118.781 63.2ZM125.272 68.6V55.46H127.468V56.864C127.708 56.432 128.086 56.054 128.602 55.73C129.118 55.406 129.772 55.244 130.564 55.244C131.836 55.244 132.826 55.64 133.534 56.432C134.254 57.212 134.614 58.388 134.614 59.96V60.32C134.614 61.412 134.446 62.324 134.11 63.056C133.786 63.776 133.324 64.316 132.724 64.676C132.124 65.036 131.404 65.216 130.564 65.216C129.916 65.216 129.34 65.078 128.836 64.802C128.344 64.514 127.942 64.142 127.63 63.686V68.6H125.272ZM130.006 63.2C130.63 63.2 131.152 62.966 131.572 62.498C131.992 62.018 132.202 61.292 132.202 60.32V59.96C132.202 59.06 131.998 58.388 131.59 57.944C131.194 57.488 130.666 57.26 130.006 57.26C129.562 57.26 129.154 57.35 128.782 57.53C128.422 57.698 128.14 57.956 127.936 58.304C127.732 58.64 127.63 59.072 127.63 59.6V60.68C127.63 61.244 127.726 61.718 127.918 62.102C128.122 62.474 128.404 62.75 128.764 62.93C129.124 63.11 129.538 63.2 130.006 63.2ZM136.346 65V55.46H138.704V61.58L142.952 55.46H145.13V65H142.772V58.88L138.524 65H136.346ZM147.332 65V55.46H149.69V61.58L153.938 55.46H156.116V65H153.758V58.88L149.51 65H147.332ZM151.742 54.47C150.674 54.47 149.894 54.242 149.402 53.786C148.922 53.33 148.682 52.658 148.682 51.77H150.788C150.788 52.238 150.866 52.568 151.022 52.76C151.178 52.94 151.412 53.03 151.724 53.03C152.06 53.03 152.312 52.94 152.48 52.76C152.648 52.568 152.732 52.238 152.732 51.77H154.802C154.802 52.658 154.556 53.33 154.064 53.786C153.572 54.242 152.798 54.47 151.742 54.47ZM165.123 65V57.44H162.081V55.46H170.523V57.44H167.499V65H165.123ZM176.103 65.216C175.239 65.216 174.441 65.042 173.709 64.694C172.989 64.334 172.413 63.794 171.981 63.074C171.549 62.342 171.333 61.424 171.333 60.32V59.96C171.333 58.904 171.537 58.028 171.945 57.332C172.365 56.636 172.923 56.114 173.619 55.766C174.315 55.418 175.083 55.244 175.923 55.244C177.423 55.244 178.563 55.64 179.343 56.432C180.123 57.224 180.513 58.37 180.513 59.87V60.878H173.763C173.787 61.442 173.907 61.904 174.123 62.264C174.351 62.612 174.639 62.87 174.987 63.038C175.335 63.194 175.707 63.272 176.103 63.272C176.715 63.272 177.177 63.182 177.489 63.002C177.801 62.822 178.023 62.558 178.155 62.21H180.333C180.141 63.206 179.667 63.956 178.911 64.46C178.155 64.964 177.219 65.216 176.103 65.216ZM176.013 57.188C175.641 57.188 175.281 57.248 174.933 57.368C174.585 57.488 174.309 57.704 174.105 58.016C173.901 58.316 173.787 58.718 173.763 59.222H178.209C178.197 58.682 178.089 58.268 177.885 57.98C177.693 57.68 177.435 57.476 177.111 57.368C176.787 57.248 176.421 57.188 176.013 57.188ZM182.243 65V55.46H185.033L187.679 60.608L190.325 55.46H193.007V65H190.757V58.79L188.435 63.11H186.815L184.493 58.79V65H182.243ZM195.198 65V55.46H203.802V65H201.444V57.44H197.556V65H195.198ZM210.293 65.216C209.429 65.216 208.631 65.042 207.899 64.694C207.179 64.334 206.603 63.794 206.171 63.074C205.739 62.342 205.523 61.424 205.523 60.32V59.96C205.523 58.904 205.727 58.028 206.135 57.332C206.555 56.636 207.113 56.114 207.809 55.766C208.505 55.418 209.273 55.244 210.113 55.244C211.613 55.244 212.753 55.64 213.533 56.432C214.313 57.224 214.703 58.37 214.703 59.87V60.878H207.953C207.977 61.442 208.097 61.904 208.313 62.264C208.541 62.612 208.829 62.87 209.177 63.038C209.525 63.194 209.897 63.272 210.293 63.272C210.905 63.272 211.367 63.182 211.679 63.002C211.991 62.822 212.213 62.558 212.345 62.21H214.523C214.331 63.206 213.857 63.956 213.101 64.46C212.345 64.964 211.409 65.216 210.293 65.216ZM210.203 57.188C209.831 57.188 209.471 57.248 209.123 57.368C208.775 57.488 208.499 57.704 208.295 58.016C208.091 58.316 207.977 58.718 207.953 59.222H212.399C212.387 58.682 212.279 58.268 212.075 57.98C211.883 57.68 211.625 57.476 211.301 57.368C210.977 57.248 210.611 57.188 210.203 57.188ZM216.432 68.6V55.46H218.628V56.864C218.868 56.432 219.246 56.054 219.762 55.73C220.278 55.406 220.932 55.244 221.724 55.244C222.996 55.244 223.986 55.64 224.694 56.432C225.414 57.212 225.774 58.388 225.774 59.96V60.32C225.774 61.412 225.606 62.324 225.27 63.056C224.946 63.776 224.484 64.316 223.884 64.676C223.284 65.036 222.564 65.216 221.724 65.216C221.076 65.216 220.5 65.078 219.996 64.802C219.504 64.514 219.102 64.142 218.79 63.686V68.6H216.432ZM221.166 63.2C221.79 63.2 222.312 62.966 222.732 62.498C223.152 62.018 223.362 61.292 223.362 60.32V59.96C223.362 59.06 223.158 58.388 222.75 57.944C222.354 57.488 221.826 57.26 221.166 57.26C220.722 57.26 220.314 57.35 219.942 57.53C219.582 57.698 219.3 57.956 219.096 58.304C218.892 58.64 218.79 59.072 218.79 59.6V60.68C218.79 61.244 218.886 61.718 219.078 62.102C219.282 62.474 219.564 62.75 219.924 62.93C220.284 63.11 220.698 63.2 221.166 63.2ZM230.35 65.216C229.666 65.216 229.084 65.09 228.604 64.838C228.124 64.574 227.758 64.214 227.506 63.758C227.254 63.302 227.128 62.786 227.128 62.21C227.128 61.25 227.41 60.53 227.974 60.05C228.55 59.57 229.408 59.33 230.548 59.33H233.392V58.88C233.392 58.256 233.248 57.818 232.96 57.566C232.684 57.314 232.24 57.188 231.628 57.188C231.088 57.188 230.698 57.284 230.458 57.476C230.218 57.656 230.08 57.884 230.044 58.16H227.668C227.704 57.608 227.878 57.116 228.19 56.684C228.514 56.24 228.97 55.892 229.558 55.64C230.158 55.376 230.878 55.244 231.718 55.244C232.534 55.244 233.242 55.364 233.842 55.604C234.454 55.844 234.928 56.234 235.264 56.774C235.6 57.302 235.768 58.016 235.768 58.916V62.57C235.768 63.074 235.774 63.518 235.786 63.902C235.81 64.274 235.846 64.64 235.894 65H233.68C233.632 64.736 233.602 64.538 233.59 64.406C233.59 64.262 233.59 64.052 233.59 63.776C233.338 64.16 232.942 64.496 232.402 64.784C231.862 65.072 231.178 65.216 230.35 65.216ZM231.088 63.38C231.472 63.38 231.838 63.314 232.186 63.182C232.546 63.038 232.834 62.822 233.05 62.534C233.278 62.234 233.392 61.856 233.392 61.4V60.95H230.998C230.542 60.95 230.182 61.058 229.918 61.274C229.666 61.478 229.54 61.76 229.54 62.12C229.54 62.504 229.672 62.81 229.936 63.038C230.2 63.266 230.584 63.38 231.088 63.38ZM240.006 65V57.44H236.964V55.46H245.406V57.44H242.382V65H240.006ZM248.813 68.816C248.633 68.816 248.453 68.798 248.273 68.762V66.746C248.453 66.782 248.633 66.8 248.813 66.8C249.053 66.8 249.251 66.74 249.407 66.62C249.575 66.5 249.725 66.308 249.857 66.044C250.001 65.78 250.157 65.432 250.325 65L246.293 55.46H248.957L251.549 62.048L253.925 55.46H256.373L252.701 65C252.353 65.9 252.017 66.626 251.693 67.178C251.369 67.742 250.985 68.156 250.541 68.42C250.109 68.684 249.533 68.816 248.813 68.816ZM257.653 68.6V55.46H259.849V56.864C260.089 56.432 260.467 56.054 260.983 55.73C261.499 55.406 262.153 55.244 262.945 55.244C264.217 55.244 265.207 55.64 265.915 56.432C266.635 57.212 266.995 58.388 266.995 59.96V60.32C266.995 61.412 266.827 62.324 266.491 63.056C266.167 63.776 265.705 64.316 265.105 64.676C264.505 65.036 263.785 65.216 262.945 65.216C262.297 65.216 261.721 65.078 261.217 64.802C260.725 64.514 260.323 64.142 260.011 63.686V68.6H257.653ZM262.387 63.2C263.011 63.2 263.533 62.966 263.953 62.498C264.373 62.018 264.583 61.292 264.583 60.32V59.96C264.583 59.06 264.379 58.388 263.971 57.944C263.575 57.488 263.047 57.26 262.387 57.26C261.943 57.26 261.535 57.35 261.163 57.53C260.803 57.698 260.521 57.956 260.317 58.304C260.113 58.64 260.011 59.072 260.011 59.6V60.68C260.011 61.244 260.107 61.718 260.299 62.102C260.503 62.474 260.785 62.75 261.145 62.93C261.505 63.11 261.919 63.2 262.387 63.2ZM268.727 65V55.46H271.085V59.15H275.153V55.46H277.511V65H275.153V61.13H271.085V65H268.727ZM279.713 65V55.46H282.071V61.58L286.319 55.46H288.497V65H286.139V58.88L281.891 65H279.713ZM290.7 65V55.46H293.058V61.58L297.306 55.46H299.484V65H297.126V58.88L292.878 65H290.7ZM295.11 54.47C294.042 54.47 293.262 54.242 292.77 53.786C292.29 53.33 292.05 52.658 292.05 51.77H294.156C294.156 52.238 294.234 52.568 294.39 52.76C294.546 52.94 294.78 53.03 295.092 53.03C295.428 53.03 295.68 52.94 295.848 52.76C296.016 52.568 296.1 52.238 296.1 51.77H298.17C298.17 52.658 297.924 53.33 297.432 53.786C296.94 54.242 296.166 54.47 295.11 54.47ZM81.098 87V77.46H83.456V81.204H84.338L87.29 77.46H89.9L86.3 81.978L90.08 87H87.236L84.338 83.076H83.456V87H81.098ZM95.402 87.216C94.538 87.216 93.74 87.042 93.008 86.694C92.288 86.334 91.712 85.788 91.28 85.056C90.848 84.324 90.632 83.412 90.632 82.32V81.96C90.632 80.928 90.848 80.064 91.28 79.368C91.712 78.66 92.288 78.132 93.008 77.784C93.74 77.424 94.538 77.244 95.402 77.244C96.278 77.244 97.076 77.424 97.796 77.784C98.516 78.132 99.092 78.66 99.524 79.368C99.956 80.064 100.172 80.928 100.172 81.96V82.32C100.172 83.388 99.956 84.288 99.524 85.02C99.092 85.752 98.516 86.304 97.796 86.676C97.076 87.036 96.278 87.216 95.402 87.216ZM95.402 85.2C95.858 85.2 96.26 85.098 96.608 84.894C96.968 84.678 97.25 84.354 97.454 83.922C97.658 83.49 97.76 82.956 97.76 82.32V81.96C97.76 81.372 97.658 80.88 97.454 80.484C97.25 80.088 96.968 79.788 96.608 79.584C96.26 79.368 95.858 79.26 95.402 79.26C94.946 79.26 94.538 79.368 94.178 79.584C93.83 79.788 93.554 80.088 93.35 80.484C93.146 80.88 93.044 81.372 93.044 81.96V82.32C93.044 82.968 93.146 83.508 93.35 83.94C93.554 84.36 93.83 84.678 94.178 84.894C94.538 85.098 94.946 85.2 95.402 85.2ZM101.893 87V77.46H104.251V81.15H108.319V77.46H110.677V87H108.319V83.13H104.251V87H101.893ZM115.183 87V79.44H112.141V77.46H120.583V79.44H117.559V87H115.183ZM122.037 90.6V77.46H124.233V78.864C124.473 78.432 124.851 78.054 125.367 77.73C125.883 77.406 126.537 77.244 127.329 77.244C128.601 77.244 129.591 77.64 130.299 78.432C131.019 79.212 131.379 80.388 131.379 81.96V82.32C131.379 83.412 131.211 84.324 130.875 85.056C130.551 85.776 130.089 86.316 129.489 86.676C128.889 87.036 128.169 87.216 127.329 87.216C126.681 87.216 126.105 87.078 125.601 86.802C125.109 86.514 124.707 86.142 124.395 85.686V90.6H122.037ZM126.771 85.2C127.395 85.2 127.917 84.966 128.337 84.498C128.757 84.018 128.967 83.292 128.967 82.32V81.96C128.967 81.06 128.763 80.388 128.355 79.944C127.959 79.488 127.431 79.26 126.771 79.26C126.327 79.26 125.919 79.35 125.547 79.53C125.187 79.698 124.905 79.956 124.701 80.304C124.497 80.64 124.395 81.072 124.395 81.6V82.68C124.395 83.244 124.491 83.718 124.683 84.102C124.887 84.474 125.169 84.75 125.529 84.93C125.889 85.11 126.303 85.2 126.771 85.2ZM137.414 87.216C136.55 87.216 135.752 87.042 135.02 86.694C134.3 86.334 133.724 85.788 133.292 85.056C132.86 84.324 132.644 83.412 132.644 82.32V81.96C132.644 80.928 132.86 80.064 133.292 79.368C133.724 78.66 134.3 78.132 135.02 77.784C135.752 77.424 136.55 77.244 137.414 77.244C138.29 77.244 139.088 77.424 139.808 77.784C140.528 78.132 141.104 78.66 141.536 79.368C141.968 80.064 142.184 80.928 142.184 81.96V82.32C142.184 83.388 141.968 84.288 141.536 85.02C141.104 85.752 140.528 86.304 139.808 86.676C139.088 87.036 138.29 87.216 137.414 87.216ZM137.414 85.2C137.87 85.2 138.272 85.098 138.62 84.894C138.98 84.678 139.262 84.354 139.466 83.922C139.67 83.49 139.772 82.956 139.772 82.32V81.96C139.772 81.372 139.67 80.88 139.466 80.484C139.262 80.088 138.98 79.788 138.62 79.584C138.272 79.368 137.87 79.26 137.414 79.26C136.958 79.26 136.55 79.368 136.19 79.584C135.842 79.788 135.566 80.088 135.362 80.484C135.158 80.88 135.056 81.372 135.056 81.96V82.32C135.056 82.968 135.158 83.508 135.362 83.94C135.566 84.36 135.842 84.678 136.19 84.894C136.55 85.098 136.958 85.2 137.414 85.2ZM143.801 87.216C143.705 87.216 143.585 87.21 143.441 87.198C143.297 87.198 143.177 87.186 143.081 87.162V85.02C143.117 85.032 143.207 85.038 143.351 85.038C143.663 85.038 143.915 84.912 144.107 84.66C144.311 84.396 144.461 83.946 144.557 83.31C144.653 82.674 144.701 81.804 144.701 80.7V77.46H152.261V87H149.885V79.44H146.897V81.06C146.897 82.296 146.831 83.316 146.699 84.12C146.579 84.924 146.387 85.554 146.123 86.01C145.871 86.454 145.553 86.766 145.169 86.946C144.785 87.126 144.329 87.216 143.801 87.216ZM154.416 87V77.46H156.792V80.664H158.826C160.062 80.664 160.986 80.928 161.598 81.456C162.21 81.984 162.516 82.776 162.516 83.832C162.516 84.456 162.39 85.008 162.138 85.488C161.886 85.956 161.49 86.328 160.95 86.604C160.41 86.868 159.702 87 158.826 87H154.416ZM156.792 85.092H158.574C159.138 85.092 159.54 84.99 159.78 84.786C160.032 84.57 160.158 84.252 160.158 83.832C160.158 83.412 160.032 83.094 159.78 82.878C159.528 82.662 159.126 82.554 158.574 82.554H156.792V85.092ZM168.567 87V77.46H170.925V81.204H171.807L174.759 77.46H177.369L173.769 81.978L177.549 87H174.705L171.807 83.076H170.925V87H168.567ZM182.871 87.216C182.007 87.216 181.209 87.042 180.477 86.694C179.757 86.334 179.181 85.788 178.749 85.056C178.317 84.324 178.101 83.412 178.101 82.32V81.96C178.101 80.928 178.317 80.064 178.749 79.368C179.181 78.66 179.757 78.132 180.477 77.784C181.209 77.424 182.007 77.244 182.871 77.244C183.747 77.244 184.545 77.424 185.265 77.784C185.985 78.132 186.561 78.66 186.993 79.368C187.425 80.064 187.641 80.928 187.641 81.96V82.32C187.641 83.388 187.425 84.288 186.993 85.02C186.561 85.752 185.985 86.304 185.265 86.676C184.545 87.036 183.747 87.216 182.871 87.216ZM182.871 85.2C183.327 85.2 183.729 85.098 184.077 84.894C184.437 84.678 184.719 84.354 184.923 83.922C185.127 83.49 185.229 82.956 185.229 82.32V81.96C185.229 81.372 185.127 80.88 184.923 80.484C184.719 80.088 184.437 79.788 184.077 79.584C183.729 79.368 183.327 79.26 182.871 79.26C182.415 79.26 182.007 79.368 181.647 79.584C181.299 79.788 181.023 80.088 180.819 80.484C180.615 80.88 180.513 81.372 180.513 81.96V82.32C180.513 82.968 180.615 83.508 180.819 83.94C181.023 84.36 181.299 84.678 181.647 84.894C182.007 85.098 182.415 85.2 182.871 85.2ZM188.182 87L191.566 82.032L188.362 77.46H190.846L193.402 81.204H194.104V77.46H196.48V81.204H197.2L199.774 77.46H202.222L199.036 81.978L202.402 87H199.738L197.2 83.076H196.48V87H194.104V83.076H193.384L190.774 87H188.182ZM203.758 87V77.46H206.116V81.15H210.184V77.46H212.542V87H210.184V83.13H206.116V87H203.758ZM219.046 87.216C218.182 87.216 217.384 87.042 216.652 86.694C215.932 86.334 215.356 85.788 214.924 85.056C214.492 84.324 214.276 83.412 214.276 82.32V81.96C214.276 80.928 214.492 80.064 214.924 79.368C215.356 78.66 215.932 78.132 216.652 77.784C217.384 77.424 218.182 77.244 219.046 77.244C219.922 77.244 220.72 77.424 221.44 77.784C222.16 78.132 222.736 78.66 223.168 79.368C223.6 80.064 223.816 80.928 223.816 81.96V82.32C223.816 83.388 223.6 84.288 223.168 85.02C222.736 85.752 222.16 86.304 221.44 86.676C220.72 87.036 219.922 87.216 219.046 87.216ZM219.046 85.2C219.502 85.2 219.904 85.098 220.252 84.894C220.612 84.678 220.894 84.354 221.098 83.922C221.302 83.49 221.404 82.956 221.404 82.32V81.96C221.404 81.372 221.302 80.88 221.098 80.484C220.894 80.088 220.612 79.788 220.252 79.584C219.904 79.368 219.502 79.26 219.046 79.26C218.59 79.26 218.182 79.368 217.822 79.584C217.474 79.788 217.198 80.088 216.994 80.484C216.79 80.88 216.688 81.372 216.688 81.96V82.32C216.688 82.968 216.79 83.508 216.994 83.94C217.198 84.36 217.474 84.678 217.822 84.894C218.182 85.098 218.59 85.2 219.046 85.2ZM225.717 87V77.46H228.075V87H225.717ZM224.979 76.452C224.595 76.452 224.277 76.326 224.025 76.074C223.773 75.822 223.647 75.504 223.647 75.12C223.647 74.736 223.773 74.418 224.025 74.166C224.277 73.914 224.595 73.788 224.979 73.788C225.363 73.788 225.681 73.914 225.933 74.166C226.185 74.418 226.311 74.736 226.311 75.12C226.311 75.504 226.185 75.822 225.933 76.074C225.681 76.326 225.363 76.452 224.979 76.452ZM228.795 76.452C228.411 76.452 228.093 76.326 227.841 76.074C227.589 75.822 227.463 75.504 227.463 75.12C227.463 74.736 227.589 74.418 227.841 74.166C228.093 73.914 228.411 73.788 228.795 73.788C229.179 73.788 229.497 73.914 229.749 74.166C230.001 74.418 230.127 74.736 230.127 75.12C230.127 75.504 230.001 75.822 229.749 76.074C229.497 76.326 229.179 76.452 228.795 76.452ZM234.924 87V77.46H243.528V87H241.17V79.44H237.282V87H234.924ZM248.561 87.216C247.877 87.216 247.295 87.09 246.815 86.838C246.335 86.574 245.969 86.214 245.717 85.758C245.465 85.302 245.339 84.786 245.339 84.21C245.339 83.25 245.621 82.53 246.185 82.05C246.761 81.57 247.619 81.33 248.759 81.33H251.603V80.88C251.603 80.256 251.459 79.818 251.171 79.566C250.895 79.314 250.451 79.188 249.839 79.188C249.299 79.188 248.909 79.284 248.669 79.476C248.429 79.656 248.291 79.884 248.255 80.16H245.879C245.915 79.608 246.089 79.116 246.401 78.684C246.725 78.24 247.181 77.892 247.769 77.64C248.369 77.376 249.089 77.244 249.929 77.244C250.745 77.244 251.453 77.364 252.053 77.604C252.665 77.844 253.139 78.234 253.475 78.774C253.811 79.302 253.979 80.016 253.979 80.916V84.57C253.979 85.074 253.985 85.518 253.997 85.902C254.021 86.274 254.057 86.64 254.105 87H251.891C251.843 86.736 251.813 86.538 251.801 86.406C251.801 86.262 251.801 86.052 251.801 85.776C251.549 86.16 251.153 86.496 250.613 86.784C250.073 87.072 249.389 87.216 248.561 87.216ZM249.299 85.38C249.683 85.38 250.049 85.314 250.397 85.182C250.757 85.038 251.045 84.822 251.261 84.534C251.489 84.234 251.603 83.856 251.603 83.4V82.95H249.209C248.753 82.95 248.393 83.058 248.129 83.274C247.877 83.478 247.751 83.76 247.751 84.12C247.751 84.504 247.883 84.81 248.147 85.038C248.411 85.266 248.795 85.38 249.299 85.38ZM256.071 90.6V77.46H258.267V78.864C258.507 78.432 258.885 78.054 259.401 77.73C259.917 77.406 260.571 77.244 261.363 77.244C262.635 77.244 263.625 77.64 264.333 78.432C265.053 79.212 265.413 80.388 265.413 81.96V82.32C265.413 83.412 265.245 84.324 264.909 85.056C264.585 85.776 264.123 86.316 263.523 86.676C262.923 87.036 262.203 87.216 261.363 87.216C260.715 87.216 260.139 87.078 259.635 86.802C259.143 86.514 258.741 86.142 258.429 85.686V90.6H256.071ZM260.805 85.2C261.429 85.2 261.951 84.966 262.371 84.498C262.791 84.018 263.001 83.292 263.001 82.32V81.96C263.001 81.06 262.797 80.388 262.389 79.944C261.993 79.488 261.465 79.26 260.805 79.26C260.361 79.26 259.953 79.35 259.581 79.53C259.221 79.698 258.939 79.956 258.735 80.304C258.531 80.64 258.429 81.072 258.429 81.6V82.68C258.429 83.244 258.525 83.718 258.717 84.102C258.921 84.474 259.203 84.75 259.563 84.93C259.923 85.11 260.337 85.2 260.805 85.2ZM269.273 87V79.44H266.231V77.46H274.673V79.44H271.649V87H269.273ZM276.307 87V77.46H278.665V87H276.307ZM277.477 76.542C277.057 76.542 276.709 76.41 276.433 76.146C276.169 75.882 276.037 75.54 276.037 75.12C276.037 74.7 276.169 74.358 276.433 74.094C276.709 73.83 277.051 73.698 277.459 73.698C277.891 73.698 278.239 73.83 278.503 74.094C278.779 74.358 278.917 74.7 278.917 75.12C278.917 75.54 278.779 75.882 278.503 76.146C278.239 76.41 277.897 76.542 277.477 76.542ZM281.352 87V77.46H283.71V87H281.352ZM280.614 76.452C280.23 76.452 279.912 76.326 279.66 76.074C279.408 75.822 279.282 75.504 279.282 75.12C279.282 74.736 279.408 74.418 279.66 74.166C279.912 73.914 280.23 73.788 280.614 73.788C280.998 73.788 281.316 73.914 281.568 74.166C281.82 74.418 281.946 74.736 281.946 75.12C281.946 75.504 281.82 75.822 281.568 76.074C281.316 76.326 280.998 76.452 280.614 76.452ZM284.43 76.452C284.046 76.452 283.728 76.326 283.476 76.074C283.224 75.822 283.098 75.504 283.098 75.12C283.098 74.736 283.224 74.418 283.476 74.166C283.728 73.914 284.046 73.788 284.43 73.788C284.814 73.788 285.132 73.914 285.384 74.166C285.636 74.418 285.762 74.736 285.762 75.12C285.762 75.504 285.636 75.822 285.384 76.074C285.132 76.326 284.814 76.452 284.43 76.452ZM290.559 87V77.46H299.163V87H296.805V79.44H292.917V87H290.559ZM301.352 90.6V77.46H303.548V78.864C303.788 78.432 304.166 78.054 304.682 77.73C305.198 77.406 305.852 77.244 306.644 77.244C307.916 77.244 308.906 77.64 309.614 78.432C310.334 79.212 310.694 80.388 310.694 81.96V82.32C310.694 83.412 310.526 84.324 310.19 85.056C309.866 85.776 309.404 86.316 308.804 86.676C308.204 87.036 307.484 87.216 306.644 87.216C305.996 87.216 305.42 87.078 304.916 86.802C304.424 86.514 304.022 86.142 303.71 85.686V90.6H301.352ZM306.086 85.2C306.71 85.2 307.232 84.966 307.652 84.498C308.072 84.018 308.282 83.292 308.282 82.32V81.96C308.282 81.06 308.078 80.388 307.67 79.944C307.274 79.488 306.746 79.26 306.086 79.26C305.642 79.26 305.234 79.35 304.862 79.53C304.502 79.698 304.22 79.956 304.016 80.304C303.812 80.64 303.71 81.072 303.71 81.6V82.68C303.71 83.244 303.806 83.718 303.998 84.102C304.202 84.474 304.484 84.75 304.844 84.93C305.204 85.11 305.618 85.2 306.086 85.2ZM316.728 87.216C315.864 87.216 315.066 87.042 314.334 86.694C313.614 86.334 313.038 85.794 312.606 85.074C312.174 84.342 311.958 83.424 311.958 82.32V81.96C311.958 80.904 312.162 80.028 312.57 79.332C312.99 78.636 313.548 78.114 314.244 77.766C314.94 77.418 315.708 77.244 316.548 77.244C318.048 77.244 319.188 77.64 319.968 78.432C320.748 79.224 321.138 80.37 321.138 81.87V82.878H314.388C314.412 83.442 314.532 83.904 314.748 84.264C314.976 84.612 315.264 84.87 315.612 85.038C315.96 85.194 316.332 85.272 316.728 85.272C317.34 85.272 317.802 85.182 318.114 85.002C318.426 84.822 318.648 84.558 318.78 84.21H320.958C320.766 85.206 320.292 85.956 319.536 86.46C318.78 86.964 317.844 87.216 316.728 87.216ZM316.638 79.188C316.266 79.188 315.906 79.248 315.558 79.368C315.21 79.488 314.934 79.704 314.73 80.016C314.526 80.316 314.412 80.718 314.388 81.222H318.834C318.822 80.682 318.714 80.268 318.51 79.98C318.318 79.68 318.06 79.476 317.736 79.368C317.412 79.248 317.046 79.188 316.638 79.188ZM322.868 87V77.46H331.472V87H329.114V79.44H325.226V87H322.868ZM336.505 87.216C335.821 87.216 335.239 87.09 334.759 86.838C334.279 86.574 333.913 86.214 333.661 85.758C333.409 85.302 333.283 84.786 333.283 84.21C333.283 83.25 333.565 82.53 334.129 82.05C334.705 81.57 335.563 81.33 336.703 81.33H339.547V80.88C339.547 80.256 339.403 79.818 339.115 79.566C338.839 79.314 338.395 79.188 337.783 79.188C337.243 79.188 336.853 79.284 336.613 79.476C336.373 79.656 336.235 79.884 336.199 80.16H333.823C333.859 79.608 334.033 79.116 334.345 78.684C334.669 78.24 335.125 77.892 335.713 77.64C336.313 77.376 337.033 77.244 337.873 77.244C338.689 77.244 339.397 77.364 339.997 77.604C340.609 77.844 341.083 78.234 341.419 78.774C341.755 79.302 341.923 80.016 341.923 80.916V84.57C341.923 85.074 341.929 85.518 341.941 85.902C341.965 86.274 342.001 86.64 342.049 87H339.835C339.787 86.736 339.757 86.538 339.745 86.406C339.745 86.262 339.745 86.052 339.745 85.776C339.493 86.16 339.097 86.496 338.557 86.784C338.017 87.072 337.333 87.216 336.505 87.216ZM337.243 85.38C337.627 85.38 337.993 85.314 338.341 85.182C338.701 85.038 338.989 84.822 339.205 84.534C339.433 84.234 339.547 83.856 339.547 83.4V82.95H337.153C336.697 82.95 336.337 83.058 336.073 83.274C335.821 83.478 335.695 83.76 335.695 84.12C335.695 84.504 335.827 84.81 336.091 85.038C336.355 85.266 336.739 85.38 337.243 85.38ZM344.014 90.6V77.46H346.21V78.864C346.45 78.432 346.828 78.054 347.344 77.73C347.86 77.406 348.514 77.244 349.306 77.244C350.578 77.244 351.568 77.64 352.276 78.432C352.996 79.212 353.356 80.388 353.356 81.96V82.32C353.356 83.412 353.188 84.324 352.852 85.056C352.528 85.776 352.066 86.316 351.466 86.676C350.866 87.036 350.146 87.216 349.306 87.216C348.658 87.216 348.082 87.078 347.578 86.802C347.086 86.514 346.684 86.142 346.372 85.686V90.6H344.014ZM348.748 85.2C349.372 85.2 349.894 84.966 350.314 84.498C350.734 84.018 350.944 83.292 350.944 82.32V81.96C350.944 81.06 350.74 80.388 350.332 79.944C349.936 79.488 349.408 79.26 348.748 79.26C348.304 79.26 347.896 79.35 347.524 79.53C347.164 79.698 346.882 79.956 346.678 80.304C346.474 80.64 346.372 81.072 346.372 81.6V82.68C346.372 83.244 346.468 83.718 346.66 84.102C346.864 84.474 347.146 84.75 347.506 84.93C347.866 85.11 348.28 85.2 348.748 85.2ZM357.932 87.216C357.248 87.216 356.666 87.09 356.186 86.838C355.706 86.574 355.34 86.214 355.088 85.758C354.836 85.302 354.71 84.786 354.71 84.21C354.71 83.25 354.992 82.53 355.556 82.05C356.132 81.57 356.99 81.33 358.13 81.33H360.974V80.88C360.974 80.256 360.83 79.818 360.542 79.566C360.266 79.314 359.822 79.188 359.21 79.188C358.67 79.188 358.28 79.284 358.04 79.476C357.8 79.656 357.662 79.884 357.626 80.16H355.25C355.286 79.608 355.46 79.116 355.772 78.684C356.096 78.24 356.552 77.892 357.14 77.64C357.74 77.376 358.46 77.244 359.3 77.244C360.116 77.244 360.824 77.364 361.424 77.604C362.036 77.844 362.51 78.234 362.846 78.774C363.182 79.302 363.35 80.016 363.35 80.916V84.57C363.35 85.074 363.356 85.518 363.368 85.902C363.392 86.274 363.428 86.64 363.476 87H361.262C361.214 86.736 361.184 86.538 361.172 86.406C361.172 86.262 361.172 86.052 361.172 85.776C360.92 86.16 360.524 86.496 359.984 86.784C359.444 87.072 358.76 87.216 357.932 87.216ZM358.67 85.38C359.054 85.38 359.42 85.314 359.768 85.182C360.128 85.038 360.416 84.822 360.632 84.534C360.86 84.234 360.974 83.856 360.974 83.4V82.95H358.58C358.124 82.95 357.764 83.058 357.5 83.274C357.248 83.478 357.122 83.76 357.122 84.12C357.122 84.504 357.254 84.81 357.518 85.038C357.782 85.266 358.166 85.38 358.67 85.38ZM367.588 87V79.44H364.546V77.46H372.988V79.44H369.964V87H367.588ZM374.622 87V77.46H376.98V87H374.622ZM375.792 76.542C375.372 76.542 375.024 76.41 374.748 76.146C374.484 75.882 374.352 75.54 374.352 75.12C374.352 74.7 374.484 74.358 374.748 74.094C375.024 73.83 375.366 73.698 375.774 73.698C376.206 73.698 376.554 73.83 376.818 74.094C377.094 74.358 377.232 74.7 377.232 75.12C377.232 75.54 377.094 75.882 376.818 76.146C376.554 76.41 376.212 76.542 375.792 76.542ZM379.328 87V77.46H384.08C384.908 77.46 385.58 77.568 386.096 77.784C386.612 78 386.984 78.3 387.212 78.684C387.452 79.068 387.572 79.518 387.572 80.034C387.572 80.466 387.44 80.88 387.176 81.276C386.912 81.66 386.54 81.918 386.06 82.05C386.648 82.194 387.104 82.47 387.428 82.878C387.764 83.274 387.932 83.742 387.932 84.282C387.932 85.11 387.644 85.77 387.068 86.262C386.492 86.754 385.616 87 384.44 87H379.328ZM381.686 85.092H383.99C384.53 85.092 384.926 85.014 385.178 84.858C385.442 84.69 385.574 84.426 385.574 84.066C385.574 83.706 385.448 83.448 385.196 83.292C384.956 83.124 384.554 83.04 383.99 83.04H381.686V85.092ZM381.686 81.276H383.756C384.308 81.276 384.686 81.198 384.89 81.042C385.106 80.886 385.214 80.646 385.214 80.322C385.214 80.01 385.106 79.776 384.89 79.62C384.674 79.452 384.296 79.368 383.756 79.368H381.686V81.276Z" fill="white"></path>
</g>
<defs>
<clipPath id="clip0_1059_4685">
<rect width="310" height="44" fill="white" transform="translate(80 47)"></rect>
</clipPath>
</defs>
</svg>
