<svg width="32" height="32" viewBox="0 0 32 32" fill="none" xmlns="http://www.w3.org/2000/svg">
<path d="M16.0352 32H15.9648C7.1619 32 0 24.8381 0 16.0352V15.9648C0 7.16189 7.1619 0 15.9648 0H16.0352C24.8381 0 32 7.16189 32 15.9648V16.0352C32 24.8381 24.8381 32 16.0352 32ZM15.9648 1.08317C7.75873 1.08317 1.08317 7.75871 1.08317 15.9648V16.0352C1.08317 24.2413 7.75873 30.9168 15.9648 30.9168H16.0352C24.2413 30.9168 30.9168 24.2413 30.9168 16.0352V15.9648C30.9168 7.75871 24.2413 1.08317 16.0352 1.08317H15.9648Z" fill="#F9F7F2"/>
<path d="M20.7839 6.83008H11.2173C8.5744 6.83008 6.42432 8.98017 6.42432 11.6231V20.3751C6.42432 23.018 8.5744 25.1681 11.2173 25.1681H20.7839C23.4268 25.1681 25.5769 23.018 25.5769 20.3751V11.6231C25.5769 8.98017 23.4268 6.83008 20.7839 6.83008ZM8.11514 11.6231C8.11514 9.91277 9.50701 8.52089 11.2173 8.52089H20.7839C22.4942 8.52089 23.8861 9.91277 23.8861 11.6231V20.3751C23.8861 22.0854 22.4942 23.4773 20.7839 23.4773H11.2173C9.50701 23.4773 8.11514 22.0854 8.11514 20.3751V11.6231Z" fill="#F9F7F2"/>
<path d="M16.0008 20.4576C18.4585 20.4576 20.4591 18.4581 20.4591 15.9993C20.4591 13.5405 18.4596 11.541 16.0008 11.541C13.542 11.541 11.5425 13.5405 11.5425 15.9993C11.5425 18.4581 13.542 20.4576 16.0008 20.4576ZM16.0008 13.2329C17.527 13.2329 18.7683 14.4742 18.7683 16.0004C18.7683 17.5266 17.527 18.7679 16.0008 18.7679C14.4746 18.7679 13.2333 17.5266 13.2333 16.0004C13.2333 14.4742 14.4746 13.2329 16.0008 13.2329Z" fill="#F9F7F2"/>
<path d="M20.8716 12.2599C21.5335 12.2599 22.0729 11.7216 22.0729 11.0587C22.0729 10.3958 21.5345 9.85742 20.8716 9.85742C20.2087 9.85742 19.6704 10.3958 19.6704 11.0587C19.6704 11.7216 20.2087 12.2599 20.8716 12.2599Z" fill="#F9F7F2"/>
</svg>
