<svg width="60" height="60" viewBox="0 0 60 60" fill="none" xmlns="http://www.w3.org/2000/svg">
<path d="M20 43.75C20 45.0761 19.4732 46.3479 18.5355 47.2855C17.5979 48.2232 16.3261 48.75 15 48.75C13.6739 48.75 12.4021 48.2232 11.4645 47.2855C10.5268 46.3479 10 45.0761 10 43.75M20 43.75C20 42.4239 19.4732 41.1521 18.5355 40.2145C17.5979 39.2768 16.3261 38.75 15 38.75C13.6739 38.75 12.4021 39.2768 11.4645 40.2145C10.5268 41.1521 10 42.4239 10 43.75M20 43.75H38.75M10 43.75H2.5V13.75H38.75V43.75M38.75 43.75C38.75 42.4239 39.2768 41.1521 40.2145 40.2145C41.1521 39.2768 42.4239 38.75 43.75 38.75C45.0761 38.75 46.3479 39.2768 47.2855 40.2145C48.2232 41.1521 48.75 42.4239 48.75 43.75C48.75 45.0761 48.2232 46.3479 47.2855 47.2855C46.3479 48.2232 45.0761 48.75 43.75 48.75C42.4239 48.75 41.1521 48.2232 40.2145 47.2855C39.2768 46.3479 38.75 45.0761 38.75 43.75ZM38.75 43.75V22.5H49.4637L57.5 33.125V43.75H49.7638" stroke="#F9F7F2" stroke-width="2" stroke-linecap="round" stroke-linejoin="round"></path>
</svg>
