<svg width="60" height="60" viewBox="0 0 60 60" fill="none" xmlns="http://www.w3.org/2000/svg">
<path d="M33.7498 46.8742C33.7498 46.8742 43.7923 48.0817 49.5298 42.3442C55.2673 36.6067 54.3748 24.3742 54.3748 24.3742C54.3748 24.3742 42.7123 22.698 37.4998 28.1242C35.8686 29.823 33.7498 31.8742 33.7498 37.4992V46.8742ZM33.7498 46.8742C33.7498 46.8742 20.6248 48.7492 11.5798 39.7042C2.53484 30.6593 5.62484 13.1242 5.62484 13.1242C5.62484 13.1242 19.3198 11.8192 28.3461 20.8455C31.9723 24.4717 33.7498 29.9993 33.7498 36.3968V46.8742ZM43.1248 37.4992L33.7498 44.9992M18.7498 29.9992L32.9323 44.8942" stroke="#F9F7F2" stroke-width="2"></path>
</svg>
