<svg width="60" height="60" viewBox="0 0 60 60" fill="none" xmlns="http://www.w3.org/2000/svg">
<path d="M40 12.5C40 10.5109 40.7902 8.60322 42.1967 7.1967C43.6032 5.79018 45.5109 5 47.5 5C49.4891 5 51.3968 5.79018 52.8033 7.1967C54.2098 8.60322 55 10.5109 55 12.5C55 14.4891 54.2098 16.3968 52.8033 17.8033C51.3968 19.2098 49.4891 20 47.5 20C45.5109 20 43.6032 19.2098 42.1967 17.8033C40.7902 16.3968 40 14.4891 40 12.5ZM40 12.5H35C33.6739 12.5 32.4021 13.0268 31.4645 13.9645C30.5268 14.9021 30 16.1739 30 17.5V30M20 30C20 31.9891 19.2098 33.8968 17.8033 35.3033C16.3968 36.7098 14.4891 37.5 12.5 37.5C10.5109 37.5 8.60322 36.7098 7.1967 35.3033C5.79018 33.8968 5 31.9891 5 30C5 28.0109 5.79018 26.1032 7.1967 24.6967C8.60322 23.2902 10.5109 22.5 12.5 22.5C14.4891 22.5 16.3968 23.2902 17.8033 24.6967C19.2098 26.1032 20 28.0109 20 30ZM20 30H30M30 30V42.5C30 43.8261 30.5268 45.0979 31.4645 46.0355C32.4021 46.9732 33.6739 47.5 35 47.5H38.75M47.5 55C49.4891 55 51.3968 54.2098 52.8033 52.8033C54.2098 51.3968 55 49.4891 55 47.5C55 45.5109 54.2098 43.6032 52.8033 42.1967C51.3968 40.7902 49.4891 40 47.5 40C45.5109 40 43.6032 40.7902 42.1967 42.1967C40.7902 43.6032 40 45.5109 40 47.5C40 49.4891 40.7902 51.3968 42.1967 52.8033C43.6032 54.2098 45.5109 55 47.5 55Z" stroke="#F9F7F2" stroke-width="2" stroke-linecap="square"></path>
</svg>
