<svg width="15" height="17" viewBox="0 0 15 17" fill="none" xmlns="http://www.w3.org/2000/svg">
<path d="M13.5 15.1667V14.3333C13.5 13.4493 13.1488 12.6014 12.5237 11.9763C11.8986 11.3512 11.0507 11 10.1667 11H4.33333C3.44928 11 2.60143 11.3512 1.97631 11.9763C1.35119 12.6014 1 13.4493 1 14.3333V15.1667M10.5827 4.33333C10.5827 5.21739 10.2315 6.06523 9.60637 6.69036C8.98125 7.31548 8.1334 7.66667 7.24935 7.66667C6.36529 7.66667 5.51745 7.31548 4.89233 6.69036C4.2672 6.06523 3.91602 5.21739 3.91602 4.33333C3.91602 3.44928 4.2672 2.60143 4.89233 1.97631C5.51745 1.35119 6.36529 1 7.24935 1C8.1334 1 8.98125 1.35119 9.60637 1.97631C10.2315 2.60143 10.5827 3.44928 10.5827 4.33333Z" stroke="#1B4332" stroke-width="2" stroke-linecap="square"/>
</svg>
