<svg width="18" height="18" viewBox="0 0 18 18" fill="none" xmlns="http://www.w3.org/2000/svg">
<path d="M11.7162 11.6221C11.1382 12.2126 10.4487 12.6826 9.68783 13.005C8.92692 13.3273 8.10964 13.4955 7.28329 13.4999C6.45694 13.5043 5.63791 13.3448 4.87361 13.0306C4.10931 12.7164 3.41491 12.2537 2.83058 11.6694C2.24626 11.0851 1.78361 10.3907 1.4694 9.62639C1.1552 8.86209 0.995688 8.04306 1.00009 7.21671C1.00449 6.39036 1.17272 5.57309 1.49504 4.81218C1.81737 4.05127 2.28739 3.36183 2.87791 2.78376C4.05419 1.63228 5.63724 0.991322 7.28329 1.00009C8.92934 1.00886 10.5055 1.66663 11.6694 2.83058C12.8334 3.99453 13.4911 5.57066 13.4999 7.21671C13.5087 8.86276 12.8677 10.4458 11.7162 11.6221ZM11.7162 11.6221L16.1354 16.0421" stroke="#1B4332" stroke-width="2" stroke-linecap="square"/>
</svg>
