<svg width="14" height="17" viewBox="0 0 14 17" fill="none" xmlns="http://www.w3.org/2000/svg">
<path d="M7.26074 2.15527V2.1543L8.34863 3.36133V3.3623L8.92676 4.01172L9.59961 4.78125L9.89258 5.12207V5.12109L10.4033 5.73047L10.7119 6.11133L10.875 6.32031V6.32129C12.0652 7.87188 12.5646 9.77523 12.1436 11.4639C11.511 14.0005 9.23295 15.7585 6.63965 15.7598L6.43945 15.7568H6.44043C3.9372 15.6673 1.7627 13.9312 1.14746 11.4639C0.726259 9.77444 1.22477 7.86955 2.41504 6.32031L2.68848 5.97559L2.6875 5.97461L3.01465 5.57617L3.55078 4.94531L3.5498 4.94434L4.0166 4.40918L4.55078 3.80273L5.14453 3.13672L6.03516 2.14941L6.64551 1.48242L7.26074 2.15527Z" stroke="#93928C" stroke-width="2"/>
</svg>
