<svg width="22" height="22" viewBox="0 0 22 22" fill="none" xmlns="http://www.w3.org/2000/svg">
<path d="M19.982 5.45489C19.7086 4.44225 19.1746 3.51898 18.4331 2.77712C17.6916 2.03527 16.7685 1.50076 15.756 1.22689M16.604 6.36689C16.4902 5.94488 16.2676 5.5601 15.9586 5.25093C15.6496 4.94176 15.265 4.71901 14.843 4.60489M20 20.2129C16.2 20.2129 12.662 19.0979 9.69303 17.1769C7.42916 15.7117 5.50121 13.7838 4.03603 11.5199C2.04817 8.4503 0.993544 4.86993 1.00003 1.21289H7.77803L8.97003 6.58489L6.94603 8.60889C8.2876 10.9698 10.2421 12.9243 12.603 14.2659L14.627 12.2409L20 13.4359V20.2129Z" stroke="white" stroke-width="2" stroke-linecap="square"/>
</svg>
