<svg width="17" height="17" viewBox="0 0 17 17" fill="none" xmlns="http://www.w3.org/2000/svg">
<mask id="path-1-inside-1_40000001_273" fill="white">
<path d="M8.33333 0C3.81667 0 0 3.81667 0 8.33333C0 12.85 3.81667 16.6667 8.33333 16.6667C12.85 16.6667 16.6667 12.85 16.6667 8.33333C16.6667 3.81667 12.85 0 8.33333 0ZM8.33333 15C4.71667 15 1.66667 11.95 1.66667 8.33333C1.66667 4.71667 4.71667 1.66667 8.33333 1.66667C11.95 1.66667 15 4.71667 15 8.33333C15 11.95 11.95 15 8.33333 15Z"/>
<path d="M9.16667 4.16667H7.5V9.16667H12.5V7.5H9.16667V4.16667Z"/>
</mask>
<path d="M9.16667 4.16667H11.1667V2.16667H9.16667V4.16667ZM7.5 4.16667V2.16667H5.5V4.16667H7.5ZM7.5 9.16667H5.5V11.1667H7.5V9.16667ZM12.5 9.16667V11.1667H14.5V9.16667H12.5ZM12.5 7.5H14.5V5.5H12.5V7.5ZM9.16667 7.5H7.16667V9.5H9.16667V7.5ZM8.33333 0V-2C2.7121 -2 -2 2.7121 -2 8.33333H0H2C2 4.92124 4.92124 2 8.33333 2V0ZM0 8.33333H-2C-2 13.9546 2.7121 18.6667 8.33333 18.6667V16.6667V14.6667C4.92124 14.6667 2 11.7454 2 8.33333H0ZM8.33333 16.6667V18.6667C13.9546 18.6667 18.6667 13.9546 18.6667 8.33333H16.6667H14.6667C14.6667 11.7454 11.7454 14.6667 8.33333 14.6667V16.6667ZM16.6667 8.33333H18.6667C18.6667 2.7121 13.9546 -2 8.33333 -2V0V2C11.7454 2 14.6667 4.92124 14.6667 8.33333H16.6667ZM8.33333 15V13C5.82124 13 3.66667 10.8454 3.66667 8.33333H1.66667H-0.333333C-0.333333 13.0546 3.6121 17 8.33333 17V15ZM1.66667 8.33333H3.66667C3.66667 5.82124 5.82124 3.66667 8.33333 3.66667V1.66667V-0.333333C3.6121 -0.333333 -0.333333 3.6121 -0.333333 8.33333H1.66667ZM8.33333 1.66667V3.66667C10.8454 3.66667 13 5.82124 13 8.33333H15H17C17 3.6121 13.0546 -0.333333 8.33333 -0.333333V1.66667ZM15 8.33333H13C13 10.8454 10.8454 13 8.33333 13V15V17C13.0546 17 17 13.0546 17 8.33333H15ZM9.16667 4.16667V2.16667H7.5V4.16667V6.16667H9.16667V4.16667ZM7.5 4.16667H5.5V9.16667H7.5H9.5V4.16667H7.5ZM7.5 9.16667V11.1667H12.5V9.16667V7.16667H7.5V9.16667ZM12.5 9.16667H14.5V7.5H12.5H10.5V9.16667H12.5ZM12.5 7.5V5.5H9.16667V7.5V9.5H12.5V7.5ZM9.16667 7.5H11.1667V4.16667H9.16667H7.16667V7.5H9.16667Z" fill="#93928C" mask="url(#path-1-inside-1_40000001_273)"/>
</svg>
