<svg width="52" height="52" viewBox="0 0 52 52" fill="none" xmlns="http://www.w3.org/2000/svg">
<path d="M36 8.5C36 6.51088 36.7902 4.60322 38.1967 3.1967C39.6032 1.79018 41.5109 1 43.5 1C45.4891 1 47.3968 1.79018 48.8033 3.1967C50.2098 4.60322 51 6.51088 51 8.5C51 10.4891 50.2098 12.3968 48.8033 13.8033C47.3968 15.2098 45.4891 16 43.5 16C41.5109 16 39.6032 15.2098 38.1967 13.8033C36.7902 12.3968 36 10.4891 36 8.5ZM36 8.5H31C29.6739 8.5 28.4021 9.02678 27.4645 9.96447C26.5268 10.9021 26 12.1739 26 13.5V26M16 26C16 27.9891 15.2098 29.8968 13.8033 31.3033C12.3968 32.7098 10.4891 33.5 8.5 33.5C6.51088 33.5 4.60322 32.7098 3.1967 31.3033C1.79018 29.8968 1 27.9891 1 26C1 24.0109 1.79018 22.1032 3.1967 20.6967C4.60322 19.2902 6.51088 18.5 8.5 18.5C10.4891 18.5 12.3968 19.2902 13.8033 20.6967C15.2098 22.1032 16 24.0109 16 26ZM16 26H26M26 26V38.5C26 39.8261 26.5268 41.0979 27.4645 42.0355C28.4021 42.9732 29.6739 43.5 31 43.5H34.75M43.5 51C45.4891 51 47.3968 50.2098 48.8033 48.8033C50.2098 47.3968 51 45.4891 51 43.5C51 41.5109 50.2098 39.6032 48.8033 38.1967C47.3968 36.7902 45.4891 36 43.5 36C41.5109 36 39.6032 36.7902 38.1967 38.1967C36.7902 39.6032 36 41.5109 36 43.5C36 45.4891 36.7902 47.3968 38.1967 48.8033C39.6032 50.2098 41.5109 51 43.5 51Z" stroke="#F9F7F2" stroke-width="2" stroke-linecap="square"/>
</svg>
