<svg width="7" height="15" viewBox="0 0 7 15" fill="none" xmlns="http://www.w3.org/2000/svg">
<path d="M6 1V2.293L4 4.293V0H3V4.293L1 2.293V1H0V9C0.00140069 9.84081 0.305265 10.653 0.856077 11.2883C1.40689 11.9236 2.16787 12.3395 3 12.46V14.5H4V12.46C4.83213 12.3395 5.59311 11.9236 6.14392 11.2883C6.69474 10.653 6.9986 9.84081 7 9V1H6ZM3 11.4495C2.43583 11.3334 1.92892 11.0264 1.56463 10.5802C1.20034 10.1341 1.00094 9.57599 1 9V7.707L3 9.707V11.4495ZM3 8.293L1 6.293V3.707L3 5.707V8.293ZM4 5.707L6 3.707V6.293L4 8.293V5.707ZM4 11.4495V9.707L6 7.707V9C5.99906 9.57599 5.79966 10.1341 5.43537 10.5802C5.07108 11.0264 4.56417 11.3334 4 11.4495Z" fill="#1B4332"/>
</svg>
