<svg width="17" height="16" viewBox="0 0 17 16" fill="none" xmlns="http://www.w3.org/2000/svg">
<path d="M1 1H3L5 8.33333M5 8.33333L4.33333 11H14.3333M5 8.33333H13L15 2.33333H3.36333L5 8.33333ZM5 13.6667C5 13.8435 4.92976 14.013 4.80474 14.1381C4.67971 14.2631 4.51014 14.3333 4.33333 14.3333C4.15652 14.3333 3.98695 14.2631 3.86193 14.1381C3.7369 14.013 3.66667 13.8435 3.66667 13.6667C3.66667 13.4899 3.7369 13.3203 3.86193 13.1953C3.98695 13.0702 4.15652 13 4.33333 13C4.51014 13 4.67971 13.0702 4.80474 13.1953C4.92976 13.3203 5 13.4899 5 13.6667ZM14.3333 13.6667C14.3333 13.8435 14.2631 14.013 14.1381 14.1381C14.013 14.2631 13.8435 14.3333 13.6667 14.3333C13.4899 14.3333 13.3203 14.2631 13.1953 14.1381C13.0702 14.013 13 13.8435 13 13.6667C13 13.4899 13.0702 13.3203 13.1953 13.1953C13.3203 13.0702 13.4899 13 13.6667 13C13.8435 13 14.013 13.0702 14.1381 13.1953C14.2631 13.3203 14.3333 13.4899 14.3333 13.6667Z" stroke="#1B4332" stroke-width="2" stroke-linecap="square"/>
</svg>
