<svg width="52" height="36" viewBox="0 0 52 36" fill="none" xmlns="http://www.w3.org/2000/svg">
<path d="M29.6341 34.8157C29.6341 34.8157 39.6766 36.0232 45.4141 30.2857C51.1516 24.5482 50.2591 12.3157 50.2591 12.3157C50.2591 12.3157 38.5966 10.6394 33.3841 16.0657C31.7529 17.7644 29.6341 19.8157 29.6341 25.4407V34.8157ZM29.6341 34.8157C29.6341 34.8157 16.5091 36.6907 7.46412 27.6457C-1.58088 18.6007 1.50912 1.06565 1.50912 1.06565C1.50912 1.06565 15.2041 -0.239346 24.2304 8.7869C27.8566 12.4132 29.6341 17.9407 29.6341 24.3382V34.8157ZM39.0091 25.4407L29.6341 32.9407M14.6341 17.9407L28.8166 32.8357" stroke="#F9F7F2" stroke-width="2"/>
</svg>
