<svg width="24" height="48" viewBox="0 0 24 48" fill="none" xmlns="http://www.w3.org/2000/svg">
<path d="M12 13.5C12.3978 13.5 12.7794 13.658 13.0607 13.9393C13.342 14.2206 13.5 14.6022 13.5 15V30.189C14.914 30.5541 16.1463 31.4223 16.9659 32.631C17.7855 33.8397 18.1362 35.3058 17.9522 36.7545C17.7682 38.2032 17.0621 39.5351 15.9664 40.5005C14.8706 41.4659 13.4604 41.9985 12 41.9985C10.5396 41.9985 9.12942 41.4659 8.03366 40.5005C6.9379 39.5351 6.23184 38.2032 6.04783 36.7545C5.86382 35.3058 6.21449 33.8397 7.0341 32.631C7.85372 31.4223 9.08602 30.5541 10.5 30.189V15C10.5 14.6022 10.658 14.2206 10.9393 13.9393C11.2207 13.658 11.6022 13.5 12 13.5ZM12 0C9.61306 0 7.32387 0.948212 5.63605 2.63604C3.94822 4.32387 3.00001 6.61305 3.00001 9V28.062C1.4725 29.794 0.477221 31.93 0.133594 34.2137C-0.210033 36.4973 0.112591 38.8317 1.06275 40.9365C2.01291 43.0413 3.55025 44.8273 5.49029 46.0801C7.43032 47.3329 9.69064 47.9992 12 47.9992C14.3094 47.9992 16.5697 47.3329 18.5097 46.0801C20.4498 44.8273 21.9871 43.0413 22.9373 40.9365C23.8874 38.8317 24.21 36.4973 23.8664 34.2137C23.5228 31.93 22.5275 29.794 21 28.062V9C21 6.61305 20.0518 4.32387 18.364 2.63604C16.6761 0.948212 14.387 0 12 0ZM12 3C13.5913 3 15.1174 3.63214 16.2426 4.75736C17.3679 5.88258 18 7.4087 18 9V29.265L18.429 29.7C19.6692 30.9659 20.508 32.5698 20.8403 34.3105C21.1727 36.0512 20.9837 37.8513 20.2971 39.4851C19.6105 41.1188 18.4569 42.5135 16.9809 43.4943C15.5049 44.4751 13.7722 44.9982 12 44.9982C10.2278 44.9982 8.49513 44.4751 7.01911 43.4943C5.54309 42.5135 4.38947 41.1188 3.70289 39.4851C3.01632 37.8513 2.82734 36.0512 3.15967 34.3105C3.492 32.5698 4.33084 30.9659 5.57101 29.7L6.00001 29.265V9C6.00001 7.4087 6.63215 5.88258 7.75737 4.75736C8.88259 3.63214 10.4087 3 12 3Z" fill="white"/>
</svg>
