<svg width="20" height="18" viewBox="0 0 20 18" fill="none" xmlns="http://www.w3.org/2000/svg">
<path d="M12.9167 3.14062L16.6667 8.97396M12.9167 3.14062H6.25M12.9167 3.14062L15 0.640625M16.6667 8.97396L12.9167 14.8073M16.6667 8.97396H19.1667M12.9167 14.8073H6.25M12.9167 14.8073L15 17.3073M6.25 14.8073L2.5 8.97396M6.25 14.8073L4.16667 17.3073M2.5 8.97396L6.25 3.14062M2.5 8.97396H0M6.25 3.14062L4.16667 0.640625M9.72611 11.8573L8.65468 12.5573L7.58325 11.8573V10.8073L8.65468 10.1073L9.72611 10.8073V11.8573ZM12.5833 8.70731L10.7975 9.75731L9.01182 8.70731V6.60731L10.7975 5.55731L12.5833 6.60731V8.70731Z" stroke="#93928C" stroke-width="2" stroke-miterlimit="10" stroke-linejoin="round"/>
</svg>
