<svg width="10" height="18" viewBox="0 0 10 18" fill="none" xmlns="http://www.w3.org/2000/svg">
<path d="M5 5.06258C5.16576 5.06258 5.32473 5.12184 5.44194 5.22733C5.55915 5.33282 5.625 5.4759 5.625 5.62509V11.321C6.21416 11.458 6.72762 11.7836 7.06913 12.2368C7.41063 12.6901 7.55674 13.2399 7.48007 13.7832C7.4034 14.3264 7.10921 14.8259 6.65264 15.1879C6.19608 15.5499 5.60848 15.7497 5 15.7497C4.39152 15.7497 3.80392 15.5499 3.34736 15.1879C2.89079 14.8259 2.5966 14.3264 2.51993 13.7832C2.44326 13.2399 2.58937 12.6901 2.93087 12.2368C3.27238 11.7836 3.78584 11.458 4.375 11.321V5.62509C4.375 5.4759 4.44085 5.33282 4.55806 5.22733C4.67527 5.12184 4.83424 5.06258 5 5.06258ZM5 0C4.00544 0 3.05161 0.355585 2.34835 0.98853C1.64509 1.62148 1.25 2.47993 1.25 3.37505V10.5234C0.613542 11.1729 0.198842 11.9739 0.0556641 12.8303C-0.0875138 13.6867 0.0469127 14.5621 0.442813 15.3514C0.838714 16.1408 1.47927 16.8105 2.28762 17.2803C3.09596 17.7501 4.03776 18 5 18C5.96224 18 6.90404 17.7501 7.71238 17.2803C8.52073 16.8105 9.16129 16.1408 9.55719 15.3514C9.95309 14.5621 10.0875 13.6867 9.94434 12.8303C9.80116 11.9739 9.38646 11.1729 8.75 10.5234V3.37505C8.75 2.47993 8.35491 1.62148 7.65165 0.98853C6.94839 0.355585 5.99456 0 5 0ZM5 1.12502C5.66304 1.12502 6.29892 1.36207 6.76777 1.78404C7.23661 2.206 7.5 2.77831 7.5 3.37505V10.9745L7.67875 11.1377C8.19548 11.6124 8.545 12.2139 8.68347 12.8666C8.82194 13.5194 8.7432 14.1945 8.45713 14.8071C8.17106 15.4198 7.69038 15.9428 7.07537 16.3106C6.46037 16.6784 5.7384 16.8746 5 16.8746C4.2616 16.8746 3.53964 16.6784 2.92463 16.3106C2.30962 15.9428 1.82894 15.4198 1.54287 14.8071C1.2568 14.1945 1.17806 13.5194 1.31653 12.8666C1.455 12.2139 1.80452 11.6124 2.32125 11.1377L2.5 10.9745V3.37505C2.5 2.77831 2.76339 2.206 3.23223 1.78404C3.70108 1.36207 4.33696 1.12502 5 1.12502Z" fill="#93928C"/>
</svg>
