<svg width="34" height="31" viewBox="0 0 34 31" fill="none" xmlns="http://www.w3.org/2000/svg">
<path d="M19.1875 22.4297H19.75L29.1715 20.2622C29.7325 20.1014 30.3334 20.1567 30.8556 20.4172C31.3778 20.6777 31.7834 21.1245 31.9923 21.6695C32.2012 22.2144 32.1982 22.8178 31.984 23.3607C31.7697 23.9035 31.3598 24.3463 30.835 24.6017L25.375 26.9297L16.375 29.1797H6.25M19.1875 22.4297C19.9334 22.4297 20.6488 22.1334 21.1762 21.6059C21.7037 21.0785 22 20.3631 22 19.6172C22 18.8713 21.7037 18.1559 21.1762 17.6284C20.6488 17.101 19.9334 16.8047 19.1875 16.8047H12.157C11.7133 16.8035 11.2738 16.8898 10.8635 17.0586C10.4533 17.2275 10.0803 17.4756 9.766 17.7887L6.25 21.3047M19.1875 22.4297H16M6.25 21.3047V29.1797M6.25 21.3047H1V29.1797H6.25M20.5 9.67969C20.5 6.02419 25 1.42969 25 1.42969C25 1.42969 29.5 6.02419 29.5 9.67969C29.5 10.8732 29.0259 12.0178 28.182 12.8617C27.3381 13.7056 26.1935 14.1797 25 14.1797C23.8065 14.1797 22.6619 13.7056 21.818 12.8617C20.9741 12.0178 20.5 10.8732 20.5 9.67969Z" stroke="#F9F7F2" stroke-width="2" stroke-linecap="square"/>
</svg>
